<?xml version="1.0" standalone="no"?><!DOCTYPE svg PUBLIC "-//W3C//DTD SVG 1.1//EN" "http://www.w3.org/Graphics/SVG/1.1/DTD/svg11.dtd"><svg t="1658062233972" class="icon" viewBox="0 0 1024 1024" version="1.1" xmlns="http://www.w3.org/2000/svg" p-id="2298" xmlns:xlink="http://www.w3.org/1999/xlink" width="200" height="200"><defs><style type="text/css">@font-face { font-family: feedback-iconfont; src: url("//at.alicdn.com/t/font_1031158_u69w8yhxdu.woff2?t=1630033759944") format("woff2"), url("//at.alicdn.com/t/font_1031158_u69w8yhxdu.woff?t=1630033759944") format("woff"), url("//at.alicdn.com/t/font_1031158_u69w8yhxdu.ttf?t=1630033759944") format("truetype"); }
</style></defs><path d="M544.512 201.696l2.416 1.936 279.472 237.76a16 16 0 0 1 1.856 22.512l-10.352 12.256a16 16 0 0 1-22.56 1.888l-0.032-0.032L515.936 240.32a0.928 0.928 0 0 0-0.816-0.192l-0.384 0.192-274.464 232.576-0.256 0.32-0.08 0.384v309.36c0 0.352 0.192 0.64 0.464 0.8l0.48 0.144h555.744a16 16 0 0 1 16 16V816a16 16 0 0 1-16 16H240.864a48.944 48.944 0 0 1-48.784-46.16l-0.08-2.88V473.6c0-13.328 5.408-26.032 14.88-35.232l2.464-2.24 274.464-232.56a48.736 48.736 0 0 1 60.704-1.872z m8.496 277.92a16 16 0 0 1 22.624 0l11.392 11.376 1.328 1.504a16 16 0 0 1-1.328 21.12l-70.512 70.48h291.872a16 16 0 0 1 16 16v15.936a16 16 0 0 1-16 16H516.8l70.592 70.608a16 16 0 0 1 1.328 21.12l-1.328 1.504-11.28 11.264a16 16 0 0 1-22.624 0l-117.392-117.392a16 16 0 0 1 0-22.624z" p-id="2299"></path></svg>